IKResults
version=1
nRows=4
nColumns=67
inDegrees=yes

Units are S.I. units (second, meters, Newtons, ...)
Angles are in degrees.

endheader
time	pelvis_tilt	pelvis_list	pelvis_rotation	pelvis_tx	pelvis_ty	pelvis_tz	hip_flexion_r	hip_adduction_r	hip_rotation_r	knee_angle_r	knee_rot_r	knee_adduc_r	ankle_angle_r	ankle_rot_r	ankle_add_r	subtalar_angle_r	mtp_angle_r	mtp_rot_r	mtp_add_r	hip_flexion_l	hip_adduction_l	hip_rotation_l	knee_angle_l	knee_rot_l	knee_adduc_l	ankle_angle_l	ankle_rot_l	ankle_add_l	subtalar_angle_l	mtp_angle_l	mtp_rot_l	mtp_add_l	lumbar_extension	lumbar_bending	lumbar_rotation	neck_flexion	neck_lateral_bending	neck_rotation	arm_flex_r	arm_add_r	arm_rot_r	elbow_flex_r	elbow_rot_r	elbow_add_r	pro_sup_r	wrist_flex_r	wrist_adduc_r	wrist_rot_r	wrist_dev_r	hand_finger_flex_r	hand_finger_adduc_r	hand_finger_rot_r	arm_flex_l	arm_add_l	arm_rot_l	elbow_flex_l	elbow_rot_l	elbow_add_l	pro_sup_l	wrist_flex_l	wrist_adduc_l	wrist_rot_l	wrist_dev_l	hand_finger_flex_l	hand_finger_adduc_l	hand_finger_rot_l
      0.00000000	     15.01799794	     -1.36635417	     -5.12341250	     -2.95591742	      0.73127226	      0.91065206	    -32.57169081	      3.55955951	      6.30273994	     -9.27903153	     -5.00000000	      0.93801567	     19.56295008	     -0.12506888	      2.86646317	     -1.42219003	      2.46311621	     -0.00858610	      1.10463006	     15.97092337	     -0.63890308	     -1.80623793	     -9.59056492	      5.00000000	      0.90295480	      4.96048722	      4.53254924	     -4.99994443	      0.75890310	      3.32751047	     -0.30044400	     -1.42336001	    -31.74811627	     -3.11381767	     13.68399775	      0.00000000	      0.00000000	      0.00000000	      0.00000000	      0.00000000	      0.00000000	      0.00000000	      0.00000000	      0.00000000	     -0.00042092	      0.00000000	      0.00000000	      0.00000000	      0.00000000	      0.00000000	      0.00000000	      0.00000000	      0.00000000	      0.00000000	      0.00000000	      0.00000000	      0.00000000	      0.00000000	      0.00000000	      0.00000000	      0.00000000	      0.00000000	      0.00000000	      0.00000000	      0.00000000	      0.00000000
      0.00500000	     15.19395250	     -1.09076893	     -5.33135163	     -2.94759343	      0.73028442	      0.91086926	    -33.19502804	      3.16384946	      6.29345158	     -9.75626182	     -5.00000000	      0.83616220	     19.49591603	      0.00886396	      2.82068257	     -1.36224015	      2.51235580	     -0.00471133	      1.12569005	     16.59183556	     -0.36284483	     -2.04563688	    -11.77570123	      5.00000000	      0.78016361	      4.65009553	      4.47929819	     -4.85570809	      0.73896431	      3.43455986	     -0.31901630	     -1.46679882	    -31.74377027	     -3.68836586	     13.79477529	      0.00000000	      0.00000000	      0.00000000	      0.00000000	      0.00000000	      0.00000000	      0.00000000	      0.00000000	      0.00000000	     -0.00042092	      0.00000000	      0.00000000	      0.00000000	      0.00000000	      0.00000000	      0.00000000	      0.00000000	      0.00000000	      0.00000000	      0.00000000	      0.00000000	      0.00000000	      0.00000000	      0.00000000	      0.00000000	      0.00000000	      0.00000000	      0.00000000	      0.00000000	      0.00000000	      0.00000000
      0.01000000	     14.76146612	     -0.75571229	     -5.25199305	     -2.93866616	      0.72856594	      0.91087345	    -33.22416403	      2.85643013	      5.31817409	    -10.23565498	     -5.00000000	      0.79590196	     19.83436208	      0.75583217	      2.64120614	     -1.06381837	      3.15775246	      0.03368600	      1.40428821	     17.84421220	     -0.03686029	     -3.17600357	    -13.88936752	      5.00000000	      0.80405452	      4.94081201	      3.20111353	     -3.66902383	      0.72391829	      4.74856083	     -0.52934313	     -2.00000000	    -30.88868679	     -4.13479673	     13.67004825	      0.00000000	      0.00000000	      0.00000000	      0.00000000	      0.00000000	      0.00000000	      0.00000000	      0.00000000	      0.00000000	     -0.00042092	      0.00000000	      0.00000000	      0.00000000	      0.00000000	      0.00000000	      0.00000000	      0.00000000	      0.00000000	      0.00000000	      0.00000000	      0.00000000	      0.00000000	      0.00000000	      0.00000000	      0.00000000	      0.00000000	      0.00000000	      0.00000000	      0.00000000	      0.00000000	      0.00000000
      0.01500000	     14.90322464	     -0.53038749	     -5.41671414	     -2.93026615	      0.72758974	      0.91100961	    -33.84109189	      2.53037086	      5.29487266	    -10.65875309	     -5.00000000	      0.69101499	     19.68730785	      0.77214912	      2.58950598	     -1.06283431	      3.20800186	      0.03493692	      1.42632958	     18.26168826	      0.15320646	     -3.29819422	    -15.68010254	      5.00000000	      0.59565463	      4.52316098	      3.10095587	     -3.49750451	      0.74042773	      4.85214355	     -0.54266499	     -2.00000000	    -30.80726888	     -4.57618587	     13.78221136	      0.00000000	      0.00000000	      0.00000000	      0.00000000	      0.00000000	      0.00000000	      0.00000000	      0.00000000	      0.00000000	     -0.00042092	      0.00000000	      0.00000000	      0.00000000	      0.00000000	      0.00000000	      0.00000000	      0.00000000	      0.00000000	      0.00000000	      0.00000000	      0.00000000	      0.00000000	      0.00000000	      0.00000000	      0.00000000	      0.00000000	      0.00000000	      0.00000000	      0.00000000	      0.00000000	      0.00000000
